<svg width="143" height="47" viewBox="0 0 143 47" fill="none" xmlns="http://www.w3.org/2000/svg">
<g clip-path="url(#clip0_140_2873)">
<path d="M35.84 26.8356C36.6227 29.4837 35.1105 32.265 32.4623 33.0477L13.0076 38.7979C10.2849 39.6026 7.43933 37.9815 6.7431 35.2291L2.38221 17.9891C2.15756 17.1009 2.13877 16.1416 2.61465 15.3588C5.43571 10.718 15.0961 8.72316 24.3364 6.1238C27.0547 5.35911 29.9398 6.87338 30.7402 9.58143L35.84 26.8356Z" fill="#1566B7"/>
<path d="M33.6129 34.9438C33.6129 37.7053 31.3743 39.9438 28.6129 39.9438H9.0188C6.25737 39.9438 4.0188 37.7053 4.0188 34.9438V19.2722C4.0188 16.5108 6.25738 14.2722 9.0188 14.2722H28.6129C31.3743 14.2722 33.6129 16.5108 33.6129 19.2722V34.9438Z" fill="#1165B9" stroke="#1976D2" stroke-width="5" stroke-miterlimit="10" stroke-linecap="round" stroke-linejoin="round"/>
<path d="M16.6422 20.2722V22.5517H21.6414V26.159H18.365V28.3307H22.4043C22.4043 26.9199 24.5518 26.4309 24.5518 26.4309V22.6064C22.5743 22.6064 22.5459 20.2722 22.5459 20.2722H16.6422ZM17.2913 24.1514L14.5518 26.784V34.2722H17.2913V24.1514Z" fill="white"/>
<path d="M31 31.5H36C37.1046 31.5 38 30.6046 38 29.5V26.5C38 25.3954 37.1046 24.5 36 24.5H31C29.8954 24.5 29 25.3954 29 26.5V29.5C29 30.6046 29.8954 31.5 31 31.5Z" fill="#009DE6"/>
<path d="M31.7573 26.5C30.9289 26.5 30.2573 27.1716 30.2573 28C30.2573 28.8284 30.9289 29.5 31.7573 29.5C32.5858 29.5 33.2573 28.8284 33.2573 28C33.2573 27.1716 32.5858 26.5 31.7573 26.5Z" fill="white"/>
</g>
<path d="M57.94 24.48C57.94 25.2933 57.7533 26.04 57.38 26.72C57.0067 27.3867 56.4333 27.9267 55.66 28.34C54.8867 28.7533 53.9267 28.96 52.78 28.96H50.66V34H47.24V19.96H52.78C53.9 19.96 54.8467 20.1533 55.62 20.54C56.3933 20.9267 56.9733 21.46 57.36 22.14C57.7467 22.82 57.94 23.6 57.94 24.48ZM52.52 26.24C53.1733 26.24 53.66 26.0867 53.98 25.78C54.3 25.4733 54.46 25.04 54.46 24.48C54.46 23.92 54.3 23.4867 53.98 23.18C53.66 22.8733 53.1733 22.72 52.52 22.72H50.66V26.24H52.52ZM70.2405 28.24C70.2405 28.56 70.2205 28.8933 70.1805 29.24H62.4405C62.4938 29.9333 62.7138 30.4667 63.1005 30.84C63.5005 31.2 63.9871 31.38 64.5605 31.38C65.4138 31.38 66.0071 31.02 66.3405 30.3H69.9805C69.7938 31.0333 69.4538 31.6933 68.9605 32.28C68.4805 32.8667 67.8738 33.3267 67.1405 33.66C66.4071 33.9933 65.5871 34.16 64.6805 34.16C63.5871 34.16 62.6138 33.9267 61.7605 33.46C60.9071 32.9933 60.2405 32.3267 59.7605 31.46C59.2805 30.5933 59.0405 29.58 59.0405 28.42C59.0405 27.26 59.2738 26.2467 59.7405 25.38C60.2205 24.5133 60.8871 23.8467 61.7405 23.38C62.5938 22.9133 63.5738 22.68 64.6805 22.68C65.7605 22.68 66.7205 22.9067 67.5605 23.36C68.4005 23.8133 69.0538 24.46 69.5205 25.3C70.0005 26.14 70.2405 27.12 70.2405 28.24ZM66.7405 27.34C66.7405 26.7533 66.5405 26.2867 66.1405 25.94C65.7405 25.5933 65.2405 25.42 64.6405 25.42C64.0671 25.42 63.5805 25.5867 63.1805 25.92C62.7938 26.2533 62.5538 26.7267 62.4605 27.34H66.7405ZM78.8447 22.72C80.1514 22.72 81.1914 23.1467 81.9647 24C82.7514 24.84 83.1447 26 83.1447 27.48V34H79.7447V27.94C79.7447 27.1933 79.5514 26.6133 79.1647 26.2C78.778 25.7867 78.258 25.58 77.6047 25.58C76.9514 25.58 76.4314 25.7867 76.0447 26.2C75.658 26.6133 75.4647 27.1933 75.4647 27.94V34H72.0447V22.84H75.4647V24.32C75.8114 23.8267 76.278 23.44 76.8647 23.16C77.4514 22.8667 78.1114 22.72 78.8447 22.72ZM92.3213 22.72C93.6279 22.72 94.6679 23.1467 95.4413 24C96.2279 24.84 96.6213 26 96.6213 27.48V34H93.2213V27.94C93.2213 27.1933 93.0279 26.6133 92.6413 26.2C92.2546 25.7867 91.7346 25.58 91.0813 25.58C90.4279 25.58 89.9079 25.7867 89.5213 26.2C89.1346 26.6133 88.9413 27.1933 88.9413 27.94V34H85.5213V22.84H88.9413V24.32C89.2879 23.8267 89.7546 23.44 90.3413 23.16C90.9279 22.8667 91.5879 22.72 92.3213 22.72ZM110.398 22.84L103.398 39.3H99.7178L102.278 33.62L97.7378 22.84H101.558L104.138 29.82L106.698 22.84H110.398ZM122.335 24.48C122.335 25.2933 122.148 26.04 121.775 26.72C121.401 27.3867 120.828 27.9267 120.055 28.34C119.281 28.7533 118.321 28.96 117.175 28.96H115.055V34H111.635V19.96H117.175C118.295 19.96 119.241 20.1533 120.015 20.54C120.788 20.9267 121.368 21.46 121.755 22.14C122.141 22.82 122.335 23.6 122.335 24.48ZM116.915 26.24C117.568 26.24 118.055 26.0867 118.375 25.78C118.695 25.4733 118.855 25.04 118.855 24.48C118.855 23.92 118.695 23.4867 118.375 23.18C118.055 22.8733 117.568 22.72 116.915 22.72H115.055V26.24H116.915ZM123.435 28.4C123.435 27.2533 123.648 26.2467 124.075 25.38C124.515 24.5133 125.108 23.8467 125.855 23.38C126.602 22.9133 127.435 22.68 128.355 22.68C129.142 22.68 129.828 22.84 130.415 23.16C131.015 23.48 131.475 23.9 131.795 24.42V22.84H135.215V34H131.795V32.42C131.462 32.94 130.995 33.36 130.395 33.68C129.808 34 129.122 34.16 128.335 34.16C127.428 34.16 126.602 33.9267 125.855 33.46C125.108 32.98 124.515 32.3067 124.075 31.44C123.648 30.56 123.435 29.5467 123.435 28.4ZM131.795 28.42C131.795 27.5667 131.555 26.8933 131.075 26.4C130.608 25.9067 130.035 25.66 129.355 25.66C128.675 25.66 128.095 25.9067 127.615 26.4C127.148 26.88 126.915 27.5467 126.915 28.4C126.915 29.2533 127.148 29.9333 127.615 30.44C128.095 30.9333 128.675 31.18 129.355 31.18C130.035 31.18 130.608 30.9333 131.075 30.44C131.555 29.9467 131.795 29.2733 131.795 28.42ZM141.109 19.2V34H137.689V19.2H141.109Z" fill="#333333"/>
<defs>
<clipPath id="clip0_140_2873">
<rect width="38" height="38" fill="white" transform="translate(0 4.5)"/>
</clipPath>
</defs>
</svg>
