<svg width="44" height="57" viewBox="0 0 44 57" fill="none" xmlns="http://www.w3.org/2000/svg">
<path d="M38.84 29.9494C39.6227 32.5975 38.1105 35.3788 35.4623 36.1615L16.0076 41.9117C13.2849 42.7164 10.4393 41.0953 9.7431 38.3429L5.38221 21.1029C5.15756 20.2147 5.13877 19.2554 5.61465 18.4726C8.43571 13.8319 18.0961 11.837 27.3364 9.23763C30.0547 8.47294 32.9398 9.98721 33.7402 12.6953L38.84 29.9494Z" fill="#1566B7"/>
<path d="M36.6129 38.0576C36.6129 40.819 34.3743 43.0576 31.6129 43.0576H12.0187C9.25737 43.0576 7.0188 40.819 7.0188 38.0576V22.386C7.0188 19.6246 9.25738 17.386 12.0188 17.386H31.6129C34.3743 17.386 36.6129 19.6246 36.6129 22.386V38.0576Z" fill="#1165B9" stroke="#1976D2" stroke-width="5" stroke-miterlimit="10" stroke-linecap="round" stroke-linejoin="round"/>
<path d="M19.6422 23.386V25.6654H24.6414V29.2728H21.365V31.4445H25.4043C25.4043 30.0336 27.5518 29.5447 27.5518 29.5447V25.7202C25.5743 25.7202 25.5459 23.386 25.5459 23.386H19.6422ZM20.2913 27.2652L17.5518 29.8977V37.386H20.2913V27.2652Z" fill="white"/>
<path d="M34 34.6138H39C40.1046 34.6138 41 33.7184 41 32.6138V29.6138C41 28.5092 40.1046 27.6138 39 27.6138H34C32.8954 27.6138 32 28.5092 32 29.6138V32.6138C32 33.7184 32.8954 34.6138 34 34.6138Z" fill="#009DE6"/>
<path d="M34.7573 29.6138C33.9289 29.6138 33.2573 30.2854 33.2573 31.1138C33.2573 31.9422 33.9289 32.6138 34.7573 32.6138C35.5858 32.6138 36.2573 31.9422 36.2573 31.1138C36.2573 30.2854 35.5858 29.6138 34.7573 29.6138Z" fill="white"/>
</svg>
